<?xml version="1.0" encoding="utf-8"?>
<!-- Generator: Adobe Illustrator 23.0.0, SVG Export Plug-In . SVG Version: 6.00 Build 0)  -->
<svg version="1.1" id="图层_1" xmlns="http://www.w3.org/2000/svg" xmlns:xlink="http://www.w3.org/1999/xlink" x="0px" y="0px"
	 viewBox="0 0 1024 1024" style="enable-background:new 0 0 1024 1024;" xml:space="preserve">
<style type="text/css">
	.st0{fill:url(#SVGID_1_);}
	.st1{fill:#C9CED3;}
	.st2{fill:#FFFFFF;}
	.st3{fill:#2B3847;}
	.st4{fill:#CBE1E4;}
	.st5{fill:#A1CCD1;}
	.st6{fill:#CFE2E4;}
</style>
<linearGradient id="SVGID_1_" gradientUnits="userSpaceOnUse" x1="512" y1="47" x2="512" y2="977">
	<stop  offset="0" style="stop-color:#75B7BF"/>
	<stop  offset="1" style="stop-color:#CDE2E5"/>
</linearGradient>
<circle class="st0" cx="512" cy="512" r="465"/>
<g>
	<rect x="379.61" y="626.1" class="st1" width="264.77" height="188.13"/>
	<path class="st2" d="M739.61,860.95H284.39c-6.84,0-12.39-5.55-12.39-12.39v-21.95c0-6.84,5.55-12.39,12.39-12.39h455.23
		c6.84,0,12.39,5.55,12.39,12.39v21.95C752,855.4,746.45,860.95,739.61,860.95z"/>
</g>
<g>
	<path class="st2" d="M855.9,731.06H168.1c-10.23,0-18.51-8.29-18.51-18.51V241.26c0-10.23,8.29-18.51,18.51-18.51H855.9
		c10.23,0,18.51,8.29,18.51,18.51v471.29C874.42,722.78,866.13,731.06,855.9,731.06z"/>
	<path class="st3" d="M855.9,641.06H168.1c-10.23,0-18.51-8.29-18.51-18.51V241.26c0-10.23,8.29-18.51,18.51-18.51H855.9
		c10.23,0,18.51,8.29,18.51,18.51v381.29C874.42,632.78,866.13,641.06,855.9,641.06z"/>
	<circle class="st3" cx="512" cy="687.55" r="18.58"/>
	<path class="st4" d="M190.68,247.97c-10.23,0-18.51,8.29-18.51,18.51v330.84c0,9.16,6.66,16.75,15.41,18.23l639.32-367.59H190.68z"
		/>
	<path class="st5" d="M833.32,615.84c10.23,0,18.51-8.29,18.51-18.51V266.48c0-10.23-8.29-18.51-18.51-18.51h-6.44L187.57,615.56
		c1.01,0.17,2.05,0.28,3.11,0.28H833.32z"/>
	<path class="st2" d="M776.35,340.87H246.81c-13.47,0-24.39-10.92-24.39-24.39v0c0-13.47,10.92-24.39,24.39-24.39h529.55
		c13.47,0,24.39,10.92,24.39,24.39v0C800.74,329.95,789.82,340.87,776.35,340.87z"/>
	<path class="st2" d="M684.61,452.81H246.81c-13.47,0-24.39-10.92-24.39-24.39v0c0-13.47,10.92-24.39,24.39-24.39h437.81
		c13.47,0,24.39,10.92,24.39,24.39v0C709,441.89,698.08,452.81,684.61,452.81z"/>
	<path class="st2" d="M559.19,564.74H246.81c-13.47,0-24.39-10.92-24.39-24.39v0c0-13.47,10.92-24.39,24.39-24.39h312.39
		c13.47,0,24.39,10.92,24.39,24.39v0C583.58,553.82,572.66,564.74,559.19,564.74z"/>
</g>
<g>
	<polygon class="st6" points="635.26,542.44 948.01,855.19 898.74,904.46 781.61,787.33 724.16,925.69 	"/>
	<polygon class="st2" points="635.26,542.44 948.01,855.19 997.28,805.92 880.15,688.79 1018.5,631.35 	"/>
</g>
</svg>
