<?xml version="1.0" encoding="utf-8"?>
<!-- Generator: Adobe Illustrator 23.0.0, SVG Export Plug-In . SVG Version: 6.00 Build 0)  -->
<svg version="1.1" id="图层_1" xmlns="http://www.w3.org/2000/svg" xmlns:xlink="http://www.w3.org/1999/xlink" x="0px" y="0px"
	 viewBox="0 0 1024 1024" style="enable-background:new 0 0 1024 1024;" xml:space="preserve">
<style type="text/css">
	.st0{fill:url(#SVGID_1_);}
	.st1{fill:#C9CED3;}
	.st2{fill:#FFFFFF;}
	.st3{fill:#2B3847;}
	.st4{fill:#D4E2F1;}
	.st5{fill:#ABC6E3;}
	.st6{fill:#3A8BE8;}
</style>
<linearGradient id="SVGID_1_" gradientUnits="userSpaceOnUse" x1="512" y1="47" x2="512" y2="977">
	<stop  offset="0" style="stop-color:#85BAF5"/>
	<stop  offset="1" style="stop-color:#E2F0FF"/>
</linearGradient>
<circle class="st0" cx="512" cy="512" r="465"/>
<g>
	<g>
		<rect x="329.61" y="626.1" class="st1" width="264.77" height="188.13"/>
		<path class="st2" d="M689.61,860.95H234.39c-6.84,0-12.39-5.55-12.39-12.39v-21.95c0-6.84,5.55-12.39,12.39-12.39h455.23
			c6.84,0,12.39,5.55,12.39,12.39v21.95C702,855.4,696.45,860.95,689.61,860.95z"/>
	</g>
	<g>
		<path class="st2" d="M805.9,731.06H118.1c-10.23,0-18.51-8.29-18.51-18.51V241.26c0-10.23,8.29-18.51,18.51-18.51H805.9
			c10.23,0,18.51,8.29,18.51,18.51v471.29C824.42,722.78,816.13,731.06,805.9,731.06z"/>
		<path class="st3" d="M805.9,641.06H118.1c-10.23,0-18.51-8.29-18.51-18.51V241.26c0-10.23,8.29-18.51,18.51-18.51H805.9
			c10.23,0,18.51,8.29,18.51,18.51v381.29C824.42,632.78,816.13,641.06,805.9,641.06z"/>
		<circle class="st3" cx="462" cy="687.55" r="18.58"/>
		<path class="st4" d="M140.68,247.97c-10.23,0-18.51,8.29-18.51,18.51v330.84c0,9.16,6.66,16.75,15.41,18.23l639.32-367.59H140.68z
			"/>
		<path class="st5" d="M783.32,615.84c10.23,0,18.51-8.29,18.51-18.51V266.48c0-10.23-8.29-18.51-18.51-18.51h-6.44L137.57,615.56
			c1.01,0.17,2.05,0.28,3.11,0.28H783.32z"/>
		<path class="st2" d="M726.35,340.87H196.81c-13.47,0-24.39-10.92-24.39-24.39v0c0-13.47,10.92-24.39,24.39-24.39h529.55
			c13.47,0,24.39,10.92,24.39,24.39v0C750.74,329.95,739.82,340.87,726.35,340.87z"/>
		<path class="st2" d="M634.61,452.81H196.81c-13.47,0-24.39-10.92-24.39-24.39v0c0-13.47,10.92-24.39,24.39-24.39h437.81
			c13.47,0,24.39,10.92,24.39,24.39v0C659,441.89,648.08,452.81,634.61,452.81z"/>
	</g>
</g>
<g>
	<circle class="st6" cx="826.63" cy="827.19" r="149.81"/>
</g>
<g>
	<rect x="758.18" y="732.51" class="st2" width="136.66" height="19.98"/>
	<rect x="758.42" y="901.9" class="st2" width="136.66" height="19.98"/>
	<path class="st2" d="M836.88,821.29c26.57-5.74,46.72-33.67,46.72-67.25v-21.53h-113.7v21.53c0,33.58,20.16,61.51,46.72,67.25
		c0.9,1.78,1.42,3.78,1.42,5.9l0,0c0,2.12-0.52,4.12-1.42,5.9c-26.56,5.74-46.72,33.67-46.72,67.25v21.53h113.7v-21.53
		c0-33.58-20.16-61.51-46.72-67.25c-0.9-1.78-1.42-3.78-1.42-5.9l0,0C835.47,825.07,835.98,823.07,836.88,821.29z M830.35,834.82
		c19.15,4.53,37.39,23.6,37.39,50.09v16.99h-81.97v-16.99c0-26.5,18.24-45.56,37.39-50.09c0.65-1.41,1.02-5.95,1.02-7.62l0,0
		c0-1.67-0.37-6.22-1.02-7.62c-19.15-4.53-37.39-23.6-37.39-50.09v-16.99h81.97v16.99c0,26.5-18.24,45.56-37.39,50.09
		c-0.65,1.41-1.02,5.95-1.02,7.62l0,0C829.33,828.87,829.7,833.41,830.35,834.82z"/>
	<polygon class="st2" points="789.55,903.11 826.76,865.91 863.96,903.11 	"/>
	<polygon class="st2" points="809.57,802 826.76,819.18 843.94,802 	"/>
</g>
</svg>
