<?xml version="1.0" encoding="utf-8"?>
<!-- Generator: Adobe Illustrator 23.0.0, SVG Export Plug-In . SVG Version: 6.00 Build 0)  -->
<svg version="1.1" id="图层_1" xmlns="http://www.w3.org/2000/svg" xmlns:xlink="http://www.w3.org/1999/xlink" x="0px" y="0px"
	 viewBox="0 0 1024 1024" style="enable-background:new 0 0 1024 1024;" xml:space="preserve">
<style type="text/css">
	.st0{fill:url(#SVGID_1_);}
	.st1{clip-path:url(#SVGID_3_);}
	.st2{fill:#C9CED3;}
	.st3{fill:#FFFFFF;}
	.st4{fill:#2B3847;}
	.st5{fill:#D4E2F1;}
	.st6{fill:#ABC6E3;}
	.st7{fill:#3A8BE8;}
</style>
<linearGradient id="SVGID_1_" gradientUnits="userSpaceOnUse" x1="512" y1="47" x2="512" y2="977">
	<stop  offset="0" style="stop-color:#BAD7F5"/>
	<stop  offset="1" style="stop-color:#E2F0FF"/>
</linearGradient>
<circle class="st0" cx="512" cy="512" r="465"/>
<g>
	<defs>
		<circle id="SVGID_2_" cx="512" cy="512" r="465"/>
	</defs>
	<clipPath id="SVGID_3_">
		<use xlink:href="#SVGID_2_"  style="overflow:visible;"/>
	</clipPath>
	<g class="st1">
		<g>
			<rect x="320.61" y="616.1" class="st2" width="264.77" height="188.13"/>
			<path class="st3" d="M680.61,850.95H225.39c-6.84,0-12.39-5.55-12.39-12.39v-21.95c0-6.84,5.55-12.39,12.39-12.39h455.23
				c6.84,0,12.39,5.55,12.39,12.39v21.95C693,845.4,687.45,850.95,680.61,850.95z"/>
		</g>
		<g>
			<path class="st3" d="M796.9,721.06H109.1c-10.23,0-18.51-8.29-18.51-18.51V231.26c0-10.23,8.29-18.51,18.51-18.51H796.9
				c10.23,0,18.51,8.29,18.51,18.51v471.29C815.42,712.78,807.13,721.06,796.9,721.06z"/>
			<path class="st4" d="M796.9,631.06H109.1c-10.23,0-18.51-8.29-18.51-18.51V231.26c0-10.23,8.29-18.51,18.51-18.51H796.9
				c10.23,0,18.51,8.29,18.51,18.51v381.29C815.42,622.78,807.13,631.06,796.9,631.06z"/>
			<circle class="st4" cx="453" cy="677.55" r="18.58"/>
			<path class="st5" d="M131.68,237.97c-10.23,0-18.51,8.29-18.51,18.51v330.84c0,9.16,6.66,16.75,15.41,18.23l639.32-367.59H131.68
				z"/>
			<path class="st6" d="M774.32,605.84c10.23,0,18.51-8.29,18.51-18.51V256.48c0-10.23-8.29-18.51-18.51-18.51h-6.44L128.57,605.56
				c1.01,0.17,2.05,0.28,3.11,0.28H774.32z"/>
		</g>
		<path class="st3" d="M717.35,358.87H187.81c-13.47,0-24.39-10.92-24.39-24.39v0c0-13.47,10.92-24.39,24.39-24.39h529.55
			c13.47,0,24.39,10.92,24.39,24.39v0C741.74,347.95,730.82,358.87,717.35,358.87z"/>
		<path class="st3" d="M625.61,470.81H187.81c-13.47,0-24.39-10.92-24.39-24.39v0c0-13.47,10.92-24.39,24.39-24.39h437.81
			c13.47,0,24.39,10.92,24.39,24.39v0C650,459.89,639.08,470.81,625.61,470.81z"/>
	</g>
</g>
<circle class="st7" cx="826.63" cy="827.19" r="149.81"/>
<path class="st3" d="M826.63,719.4c-59.53,0-107.79,48.26-107.79,107.79s48.26,107.79,107.79,107.79
	c59.53,0,107.79-48.26,107.79-107.79S886.17,719.4,826.63,719.4z M834.15,915.94v-49.82c0-4.15-3.37-7.52-7.52-7.52
	c-4.15,0-7.52,3.37-7.52,7.52v49.82c-43.19-3.61-77.61-38.04-81.22-81.22h49.82c4.15,0,7.52-3.37,7.52-7.52s-3.37-7.52-7.52-7.52
	h-49.82c3.61-43.19,38.04-77.61,81.22-81.22v49.82c0,4.15,3.37,7.52,7.52,7.52c4.15,0,7.52-3.37,7.52-7.52v-49.82
	c43.19,3.61,77.61,38.04,81.22,81.22h-49.82c-4.15,0-7.52,3.37-7.52,7.52s3.37,7.52,7.52,7.52h49.82
	C911.77,877.9,877.34,912.33,834.15,915.94z"/>
</svg>
