<?xml version="1.0" encoding="utf-8"?>
<!-- Generator: Adobe Illustrator 23.0.0, SVG Export Plug-In . SVG Version: 6.00 Build 0)  -->
<svg version="1.1" id="图层_1" xmlns="http://www.w3.org/2000/svg" xmlns:xlink="http://www.w3.org/1999/xlink" x="0px" y="0px"
	 viewBox="0 0 1024 1024" style="enable-background:new 0 0 1024 1024;" xml:space="preserve">
<style type="text/css">
	.st0{fill:url(#SVGID_1_);}
	.st1{clip-path:url(#SVGID_3_);}
	.st2{fill:#E1F7DE;}
	.st3{fill:#FFFFFF;}
	.st4{clip-path:url(#SVGID_5_);fill:#E6FFE4;}
	.st5{display:none;fill:#73CAA7;}
	.st6{fill:#73CAA7;}
	.st7{fill:#559F81;fill-opacity:0.25;}
	.st8{fill:#559F81;}
	.st9{fill:#E6FFE4;}
	.st10{clip-path:url(#SVGID_7_);}
	.st11{fill:#559F81;fill-opacity:0.33;}
</style>
<linearGradient id="SVGID_1_" gradientUnits="userSpaceOnUse" x1="300.8494" y1="97.5937" x2="723.1506" y2="926.4063">
	<stop  offset="0" style="stop-color:#C0EDBB"/>
	<stop  offset="0.2436" style="stop-color:#C3EEBE"/>
	<stop  offset="1" style="stop-color:#C6EFC2"/>
</linearGradient>
<circle class="st0" cx="512" cy="512" r="465"/>
<g>
	<defs>
		<circle id="SVGID_2_" cx="512" cy="512" r="465"/>
	</defs>
	<clipPath id="SVGID_3_">
		<use xlink:href="#SVGID_2_"  style="overflow:visible;"/>
	</clipPath>
	<g class="st1">
		<path class="st2" d="M856.74,1125.39H236.61c-19.09,0-34.57-15.48-34.57-34.57V242.54c0-19.09,15.48-34.57,34.57-34.57h620.13
			c19.09,0,34.57,15.48,34.57,34.57v848.27C891.31,1109.91,875.83,1125.39,856.74,1125.39z"/>
		<path class="st3" d="M806.74,1175.39H186.61c-19.09,0-34.57-15.48-34.57-34.57V292.54c0-19.09,15.48-34.57,34.57-34.57h620.13
			c19.09,0,34.57,15.48,34.57,34.57v848.27C841.31,1159.91,825.83,1175.39,806.74,1175.39z"/>
		<g>
			<defs>
				<path id="SVGID_4_" d="M806.74,1175.39H186.61c-19.09,0-34.57-15.48-34.57-34.57V292.54c0-19.09,15.48-34.57,34.57-34.57h620.13
					c19.09,0,34.57,15.48,34.57,34.57v848.27C841.31,1159.91,825.83,1175.39,806.74,1175.39z"/>
			</defs>
			<use xlink:href="#SVGID_4_"  style="overflow:visible;fill:#F9FFF8;"/>
			<clipPath id="SVGID_5_">
				<use xlink:href="#SVGID_4_"  style="overflow:visible;"/>
			</clipPath>
			<polyline class="st4" points="900.43,958.68 849.33,84.04 57.52,991.13 			"/>
		</g>
		<path class="st5" d="M738.82,422.98h-241.6c-13.18,0-23.96-10.78-23.96-23.96v-15.04c0-13.18,10.78-23.96,23.96-23.96h241.6
			c13.18,0,23.96,10.78,23.96,23.96v15.04C762.79,412.19,752,422.98,738.82,422.98z"/>
		<path class="st5" d="M738.82,566.98h-241.6c-13.18,0-23.96-10.78-23.96-23.96v-15.04c0-13.18,10.78-23.96,23.96-23.96h241.6
			c13.18,0,23.96,10.78,23.96,23.96v15.04C762.79,556.19,752,566.98,738.82,566.98z"/>
		<path class="st6" d="M582.22,710.98H283.54c-13.18,0-23.96-10.78-23.96-23.96v-15.04c0-13.18,10.78-23.96,23.96-23.96h298.68
			c13.18,0,23.96,10.78,23.96,23.96v15.04C606.19,700.19,595.4,710.98,582.22,710.98z"/>
		<path class="st6" d="M662.97,854.98H283.54c-13.18,0-23.96-10.78-23.96-23.96v-15.04c0-13.18,10.78-23.96,23.96-23.96h379.43
			c13.18,0,23.96,10.78,23.96,23.96v15.04C686.94,844.19,676.15,854.98,662.97,854.98z"/>
		<path class="st6" d="M196.1,434.2l101.8-112.71l98.77,112.71h-64.23l-0.61,62.41c0,0,0,36.96,24.24,57.57
			c24.24,20.6,37.57,29.69,37.57,29.69s-61.81-6.67-93.32-44.84s-33.93-61.2-33.93-61.2l-6.67-43.67L196.1,434.2z"/>
	</g>
</g>
<path class="st7" d="M683.48,166.61c-124.91,0-226.16,101.26-226.16,226.16s101.26,226.16,226.16,226.16
	s226.16-101.26,226.16-226.16S808.39,166.61,683.48,166.61z M683.48,562.32c-93.64,0-169.55-75.91-169.55-169.55
	s75.91-169.55,169.55-169.55s169.55,75.91,169.55,169.55S777.12,562.32,683.48,562.32z"/>
<circle class="st3" cx="674.48" cy="379.77" r="226.16"/>
<g>
	<path class="st3" d="M890.81,591.8l-66.77-54.31c-8.93-7.26-10.28-20.39-3.02-29.32l8.87-10.91c7.26-8.93,20.39-10.28,29.32-3.02
		l66.77,54.31c8.93,7.26,10.28,20.39,3.02,29.32l-8.87,10.91C912.86,597.71,899.73,599.07,890.81,591.8z"/>
	<path class="st8" d="M944.84,658.95l-65.99-53.67c-17.41-14.16-20.05-39.76-5.89-57.18l6.59-8.11
		c14.16-17.41,39.76-20.05,57.18-5.89l65.99,53.67c17.41,14.16,20.05,39.76,5.89,57.18l-6.59,8.11
		C987.85,670.48,962.25,673.12,944.84,658.95z"/>
</g>
<circle class="st9" cx="674.48" cy="379.77" r="169.55"/>
<g>
	<defs>
		<circle id="SVGID_6_" cx="674.48" cy="379.77" r="169.55"/>
	</defs>
	<clipPath id="SVGID_7_">
		<use xlink:href="#SVGID_6_"  style="overflow:visible;"/>
	</clipPath>
	<g class="st10">
		<path class="st6" d="M758.97,366.81H427.54c-13.18,0-23.96-10.78-23.96-23.96v-34.58c0-13.18,10.78-23.96,23.96-23.96h331.43
			c13.18,0,23.96,10.78,23.96,23.96v34.58C782.94,356.02,772.15,366.81,758.97,366.81z"/>
		<path class="st6" d="M674.59,506.48H427.54c-13.18,0-23.96-10.78-23.96-23.96v-34.58c0-13.18,10.78-23.96,23.96-23.96h247.04
			c13.18,0,23.96,10.78,23.96,23.96v34.58C698.55,495.7,687.76,506.48,674.59,506.48z"/>
	</g>
</g>
<path class="st11" d="M523.32,414.61c0-93.64,75.91-169.55,169.55-169.55c58.04,0,109.25,29.17,139.82,73.63
	c-24.52-63.46-86.1-108.47-158.2-108.47c-93.64,0-169.55,75.91-169.55,169.55c0,35.6,10.98,68.64,29.73,95.92
	C527.35,456.74,523.32,436.15,523.32,414.61z"/>
</svg>
