<?xml version="1.0" encoding="utf-8"?>
<!-- Generator: Adobe Illustrator 23.0.0, SVG Export Plug-In . SVG Version: 6.00 Build 0)  -->
<svg version="1.1" id="图层_1" xmlns="http://www.w3.org/2000/svg" xmlns:xlink="http://www.w3.org/1999/xlink" x="0px" y="0px"
	 viewBox="0 0 1024 1024" style="enable-background:new 0 0 1024 1024;" xml:space="preserve">
<style type="text/css">
	.st0{fill:url(#SVGID_1_);}
	.st1{fill:#67B394;}
	.st2{fill:#417C64;}
	.st3{clip-path:url(#SVGID_3_);}
	.st4{fill:#D0E7EA;fill-opacity:0.49;}
	.st5{fill:#FFFFFF;}
	.st6{fill:#DFEEF0;}
	.st7{fill:#77C49E;}
</style>
<linearGradient id="SVGID_1_" gradientUnits="userSpaceOnUse" x1="512" y1="47" x2="512" y2="977">
	<stop  offset="0" style="stop-color:#C0EDBB"/>
	<stop  offset="1" style="stop-color:#E8F7E7"/>
</linearGradient>
<circle class="st0" cx="512" cy="512" r="465"/>
<g>
	<path class="st1" d="M331.42,547.48c6.12-6.12,12.94-11.42,20.28-15.78c23.83-14.13,31.69-44.91,17.56-68.74
		c-14.13-23.83-44.91-31.7-68.74-17.56c-14.54,8.62-28.01,19.09-40.04,31.13c-79.13,79.13-79.13,207.88,0,287.01l70.95-70.95
		C291.41,652.58,291.41,587.48,331.42,547.48z"/>
	<path class="st1" d="M547.48,331.42c40.01-40.01,105.1-40.01,145.11,0l70.95-70.95c-79.13-79.13-207.88-79.13-287.01,0
		c-79.13,79.13-79.13,207.88,0,287.01l70.95-70.95C507.47,436.52,507.47,371.42,547.48,331.42z"/>
	<path class="st2" d="M547.48,763.54c79.13-79.13,79.13-207.88,0-287.01l-70.95,70.95c40.01,40.01,40.01,105.1,0,145.11
		s-105.1,40.01-145.11,0l-70.95,70.95C339.59,842.67,468.35,842.67,547.48,763.54z"/>
	<path class="st2" d="M692.58,476.52c-19.59,19.59-19.59,51.36,0,70.95c19.59,19.59,51.36,19.59,70.95,0
		c79.13-79.13,79.13-207.88,0-287.01l-70.95,70.95C732.59,371.42,732.59,436.52,692.58,476.52z"/>
</g>
<g>
	<defs>
		<circle id="SVGID_2_" cx="512" cy="512" r="465"/>
	</defs>
	<clipPath id="SVGID_3_">
		<use xlink:href="#SVGID_2_"  style="overflow:visible;"/>
	</clipPath>
	<g class="st3">
		<g>
			<path class="st4" d="M1088.32,1135.19H631.55c-13.68,0-24.77-11.09-24.77-24.77V446.16c0-13.68,11.09-24.77,24.77-24.77h456.77
				c13.68,0,24.77,11.09,24.77,24.77v664.26C1113.1,1124.1,1102.01,1135.19,1088.32,1135.19z"/>
			<path class="st5" d="M571.16,469.39c-13.68,0-24.77,11.09-24.77,24.77v599.71l460.37-624.49H571.16z"/>
			<path class="st6" d="M571.16,1183.19h456.77c13.68,0,24.77-11.09,24.77-24.77V494.16c0-13.68-11.09-24.77-24.77-24.77h-21.18
				l-460.37,634.49v54.54C546.39,1172.1,557.48,1183.19,571.16,1183.19z"/>
			<path class="st7" d="M898.65,611.84H652.45c-13.2,0-24-10.8-24-24v0c0-13.2,10.8-24,24-24h246.19c13.2,0,24,10.8,24,24v0
				C922.65,601.04,911.85,611.84,898.65,611.84z"/>
			<path class="st7" d="M781.35,727.97H655.94c-13.2,0-24-10.8-24-24v0c0-13.2,10.8-24,24-24h125.42c13.2,0,24,10.8,24,24v0
				C805.35,717.17,794.55,727.97,781.35,727.97z"/>
		</g>
	</g>
</g>
</svg>
