<?xml version="1.0" encoding="utf-8"?>
<!-- Generator: Adobe Illustrator 23.0.0, SVG Export Plug-In . SVG Version: 6.00 Build 0)  -->
<svg version="1.1" id="图层_1" xmlns="http://www.w3.org/2000/svg" xmlns:xlink="http://www.w3.org/1999/xlink" x="0px" y="0px"
	 viewBox="0 0 1024 1024" style="enable-background:new 0 0 1024 1024;" xml:space="preserve">
<style type="text/css">
	.st0{fill:url(#SVGID_1_);}
	.st1{clip-path:url(#SVGID_3_);}
	.st2{fill:#FFFFFF;}
	.st3{fill:#378493;}
	.st4{fill:#59CECF;}
	.st5{fill:#93A3AE;}
	.st6{fill:#577381;}
	.st7{fill:#2F717E;}
	.st8{fill:#559F81;fill-opacity:0.25;}
	.st9{fill:#559F81;}
	.st10{fill:#FAFFFA;}
	.st11{fill:#73CAA7;}
	.st12{fill:#559F81;fill-opacity:0.33;}
</style>
<linearGradient id="SVGID_1_" gradientUnits="userSpaceOnUse" x1="300.8494" y1="97.5937" x2="723.1506" y2="926.4063">
	<stop  offset="0" style="stop-color:#C0EDBB"/>
	<stop  offset="0.2436" style="stop-color:#C3EEBE"/>
	<stop  offset="1" style="stop-color:#C6EFC2"/>
</linearGradient>
<circle class="st0" cx="512" cy="512" r="465"/>
<g>
	<defs>
		<circle id="SVGID_2_" cx="512" cy="512" r="465"/>
	</defs>
	<clipPath id="SVGID_3_">
		<use xlink:href="#SVGID_2_"  style="overflow:visible;"/>
	</clipPath>
	<g class="st1">
		<g>
			<polygon class="st2" points="592.9,1013 3.65,655.59 506.56,433.92 1086.99,696.1 			"/>
			<g>
				<polygon class="st3" points="592.9,981.89 590.17,739.96 1044.68,463.69 1044.68,699.14 				"/>
				<polygon class="st4" points="512.61,935.92 592.9,981.89 590.17,739.96 443.2,598.43 296.23,563.05 168.31,446.02 39.04,410.32 
					39.04,655.59 102.99,696.1 102.99,531.75 232.27,613.4 232.27,775.34 376.52,867.88 376.52,696.1 513.97,778.07 				"/>
				<polygon class="st5" points="443.2,598.43 927.66,297.27 763,282.04 296.23,563.05 				"/>
				<polygon class="st5" points="516.69,118.06 25.42,406.56 168.31,446.02 690.88,146.63 				"/>
				<polygon class="st6" points="763,282.04 690.88,146.63 168.31,446.02 296.23,563.05 				"/>
				<polygon class="st6" points="590.17,739.96 1075.99,444.66 927.66,297.27 443.2,598.43 				"/>
			</g>
			<polygon class="st7" points="125.67,680.69 102.99,696.1 102.99,531.75 125.67,546.08 			"/>
			<polygon class="st7" points="399.66,854.27 376.52,867.88 376.52,696.1 401.71,711.13 			"/>
		</g>
		<polygon class="st2" points="641.63,768.39 835.78,654.91 835.78,747.53 641.63,876.35 		"/>
		<polygon class="st7" points="825.14,661.13 825.14,746.62 641.63,863.65 641.63,876.35 835.78,747.53 835.78,654.91 		"/>
	</g>
</g>
<path class="st8" d="M683.48,166.61c-124.91,0-226.16,101.26-226.16,226.16s101.26,226.16,226.16,226.16
	s226.16-101.26,226.16-226.16S808.39,166.61,683.48,166.61z M683.48,562.32c-93.64,0-169.55-75.91-169.55-169.55
	s75.91-169.55,169.55-169.55s169.55,75.91,169.55,169.55S777.12,562.32,683.48,562.32z"/>
<circle class="st2" cx="674.48" cy="379.77" r="226.16"/>
<g>
	<path class="st2" d="M890.81,591.8l-66.77-54.31c-8.93-7.26-10.28-20.39-3.02-29.32l8.87-10.91c7.26-8.93,20.39-10.28,29.32-3.02
		l66.77,54.31c8.93,7.26,10.28,20.39,3.02,29.32l-8.87,10.91C912.86,597.71,899.73,599.07,890.81,591.8z"/>
	<path class="st9" d="M944.84,658.95l-65.99-53.67c-17.41-14.16-20.05-39.76-5.89-57.18l6.59-8.11
		c14.16-17.41,39.76-20.05,57.18-5.89l65.99,53.67c17.41,14.16,20.05,39.76,5.89,57.18l-6.59,8.11
		C987.85,670.48,962.25,673.12,944.84,658.95z"/>
</g>
<circle class="st10" cx="674.48" cy="379.77" r="169.55"/>
<path class="st11" d="M807.02,337.87l-22.21-22.34c-3.99-4.02-10.49-4.04-14.5-0.04L661.67,423.5l-62.84-63.2
	c-3.99-4.02-10.49-4.04-14.5-0.04l-22.34,22.21c-4.02,3.99-4.04,10.49-0.04,14.5l70.07,70.47l22.21,22.34
	c3.99,4.02,10.49,4.04,14.5,0.04l22.34-22.21l115.91-115.24C810.99,348.38,811.01,341.89,807.02,337.87z"/>
<g>
	<defs>
		<circle id="SVGID_4_" cx="674.48" cy="379.77" r="169.55"/>
	</defs>
	<clipPath id="SVGID_5_">
		<use xlink:href="#SVGID_4_"  style="overflow:visible;"/>
	</clipPath>
</g>
<path class="st12" d="M523.32,414.61c0-93.64,75.91-169.55,169.55-169.55c58.04,0,109.25,29.17,139.82,73.63
	c-24.52-63.46-86.1-108.47-158.2-108.47c-93.64,0-169.55,75.91-169.55,169.55c0,35.6,10.98,68.64,29.73,95.92
	C527.35,456.74,523.32,436.15,523.32,414.61z"/>
</svg>
