<?xml version="1.0" encoding="utf-8"?>
<!-- Generator: Adobe Illustrator 23.0.0, SVG Export Plug-In . SVG Version: 6.00 Build 0)  -->
<svg version="1.1" id="图层_1" xmlns="http://www.w3.org/2000/svg" xmlns:xlink="http://www.w3.org/1999/xlink" x="0px" y="0px"
	 viewBox="0 0 1024 1024" style="enable-background:new 0 0 1024 1024;" xml:space="preserve">
<style type="text/css">
	.st0{fill:url(#SVGID_1_);}
	.st1{display:none;fill:#070B27;}
	.st2{clip-path:url(#SVGID_3_);}
	.st3{fill:#FFFFFF;}
	.st4{clip-path:url(#SVGID_5_);fill:#E6FFE4;}
	.st5{fill:#73CAA7;}
	.st6{fill:#559F81;}
	.st7{fill:#88D8B5;}
	.st8{fill:#4A9173;}
	.st9{fill:#65BA96;}
</style>
<linearGradient id="SVGID_1_" gradientUnits="userSpaceOnUse" x1="300.8494" y1="97.5937" x2="723.1506" y2="926.4063">
	<stop  offset="0" style="stop-color:#C0EDBB"/>
	<stop  offset="0.2436" style="stop-color:#C3EEBE"/>
	<stop  offset="1" style="stop-color:#C6EFC2"/>
</linearGradient>
<circle class="st0" cx="512" cy="512" r="465"/>
<rect x="-1332.77" y="680.32" class="st1" width="539.52" height="359.65"/>
<g>
	<defs>
		<circle id="SVGID_2_" cx="512" cy="512" r="465"/>
	</defs>
	<clipPath id="SVGID_3_">
		<use xlink:href="#SVGID_2_"  style="overflow:visible;"/>
	</clipPath>
	<g class="st2">
		<path class="st3" d="M818.74,1125.39H198.61c-19.09,0-34.57-15.48-34.57-34.57V242.54c0-19.09,15.48-34.57,34.57-34.57h620.13
			c19.09,0,34.57,15.48,34.57,34.57v848.27C853.31,1109.91,837.83,1125.39,818.74,1125.39z"/>
		<g>
			<defs>
				<path id="SVGID_4_" d="M818.74,1125.39H198.61c-19.09,0-34.57-15.48-34.57-34.57V242.54c0-19.09,15.48-34.57,34.57-34.57h620.13
					c19.09,0,34.57,15.48,34.57,34.57v848.27C853.31,1109.91,837.83,1125.39,818.74,1125.39z"/>
			</defs>
			<use xlink:href="#SVGID_4_"  style="overflow:visible;fill:#F9FFF8;"/>
			<clipPath id="SVGID_5_">
				<use xlink:href="#SVGID_4_"  style="overflow:visible;"/>
			</clipPath>
			<polyline class="st4" points="912.43,998.68 861.33,34.04 19.58,1024 			"/>
		</g>
		<path class="st5" d="M750.82,372.98H585.48c-13.18,0-23.96-10.78-23.96-23.96v-15.04c0-13.18,10.78-23.96,23.96-23.96h165.34
			c13.18,0,23.96,10.78,23.96,23.96v15.04C774.79,362.19,764,372.98,750.82,372.98z"/>
		<path class="st5" d="M750.82,516.98H585.48c-13.18,0-23.96-10.78-23.96-23.96v-15.04c0-13.18,10.78-23.96,23.96-23.96h165.34
			c13.18,0,23.96,10.78,23.96,23.96v15.04C774.79,506.19,764,516.98,750.82,516.98z"/>
		<path class="st5" d="M594.22,660.98H295.54c-13.18,0-23.96-10.78-23.96-23.96v-15.04c0-13.18,10.78-23.96,23.96-23.96h298.68
			c13.18,0,23.96,10.78,23.96,23.96v15.04C618.19,650.19,607.4,660.98,594.22,660.98z"/>
		<path class="st5" d="M674.97,804.98H295.54c-13.18,0-23.96-10.78-23.96-23.96v-15.04c0-13.18,10.78-23.96,23.96-23.96h379.43
			c13.18,0,23.96,10.78,23.96,23.96v15.04C698.94,794.19,688.15,804.98,674.97,804.98z"/>
	</g>
</g>
<circle class="st6" cx="826.63" cy="827.19" r="149.81"/>
<path class="st3" d="M919.62,813.46L844,729.74l-73.37,83.73h47.72l0.45,46.37c0,0,0,27.46-18.01,42.76
	c-18.01,15.31-27.91,22.06-27.91,22.06s45.92-4.95,69.32-33.31c23.41-28.36,25.21-45.47,25.21-45.47l4.95-32.44L919.62,813.46z"/>
<g>
	<path class="st6" d="M453.39,313.67c-26.92-7.04-68.22-31.51-68.22-31.51s-41.3,24.47-68.22,31.51
		c-26.92,7.04-39.77,10.1-39.77,10.1v134.02c0,0,10.71,42.81,44.67,63.31s63.33,27.84,63.33,27.84s29.37-7.34,63.33-27.84
		s44.67-63.31,44.67-63.31V323.77C493.16,323.77,480.31,320.71,453.39,313.67z"/>
	<g>
		<path class="st7" d="M328.99,331.66c-22.17,5.79-32.75,8.31-32.75,8.31v110.35c0,0,8.82,35.25,36.78,52.13
			c27.96,16.88,52.14,22.92,52.14,22.92V305.72C385.17,305.72,351.16,325.87,328.99,331.66z"/>
		<path class="st5" d="M474.09,450.33V339.98c0,0-10.58-2.52-32.75-8.31c-22.17-5.79-56.17-25.95-56.17-25.95v219.66
			c0,0,24.18-6.05,52.14-22.92C465.27,485.58,474.09,450.33,474.09,450.33z"/>
	</g>
	<path class="st8" d="M493.16,457.79v-14.25l-19.07-16.16v22.95c0,0-8.82,35.25-36.78,52.13c-10.67,6.44-20.79,11.3-29.23,14.86
		l13.38,18.1c8.28-3.82,17.48-8.54,27.04-14.31C482.45,500.6,493.16,457.79,493.16,457.79z"/>
	<polygon class="st5" points="332.97,415.69 385.17,486.31 385.17,422.31 375.68,432.41 	"/>
	<path class="st9" d="M385.17,422.31v64l22.92,31c8.44-3.55,18.56-8.41,29.23-14.86c27.96-16.88,36.78-52.13,36.78-52.13v-22.95
		l-52.16-44.19L385.17,422.31z"/>
	<path class="st3" d="M430.79,392.1l-8.87-8.92c-1.59-1.6-4.19-1.61-5.79-0.02l-43.36,43.11l-25.08-25.23
		c-1.59-1.6-4.19-1.61-5.79-0.02l-8.92,8.87c-1.6,1.59-1.61,4.19-0.02,5.79l27.97,28.13l8.87,8.92c1.59,1.6,4.19,1.61,5.79,0.02
		l8.92-8.87l46.26-46C432.38,396.3,432.38,393.71,430.79,392.1z"/>
</g>
</svg>
